<svg xmlns="http://www.w3.org/2000/svg" xmlns:xlink="http://www.w3.org/1999/xlink" width="500" zoomAndPan="magnify" viewBox="0 0 375 374.999991" height="500" preserveAspectRatio="xMidYMid meet" version="1.0"><defs><g/></defs><rect x="-37.5" width="450" fill="#ffffff" y="-37.499999" height="449.999989" fill-opacity="1"/><rect x="-37.5" width="450" fill="#ffffff" y="-37.499999" height="449.999989" fill-opacity="1"/><g fill="#000000" fill-opacity="1"><g transform="translate(24.5739, 243.860442)"><g><path d="M 95.28125 -90.421875 L 37 -56.390625 L 95.28125 -22.984375 L 82.4375 -2.78125 L 12.484375 -46.25 L 12.484375 -66.359375 L 82.890625 -110 Z M 95.28125 -90.421875 "/></g></g></g><g fill="#000000" fill-opacity="1"><g transform="translate(132.319114, 243.860442)"><g/></g></g><g fill="#000000" fill-opacity="1"><g transform="translate(240.064327, 243.860442)"><g><path d="M 95.28125 -66.546875 L 95.28125 -46.25 L 25.328125 -2.78125 L 12.484375 -22.09375 L 70.859375 -56.390625 L 12.484375 -89.625 L 25.046875 -110 Z M 95.28125 -66.546875 "/></g></g></g><g fill="#000000" fill-opacity="1"><g transform="translate(133.683751, 25.855422)"><g><path d="M 90.421875 95.28125 L 56.390625 37 L 22.984375 95.28125 L 2.78125 82.4375 L 46.25 12.484375 L 66.359375 12.484375 L 110 82.890625 Z M 90.421875 95.28125 "/></g></g></g><g fill="#000000" fill-opacity="1"><g transform="translate(133.683751, 133.600635)"><g/></g></g><g fill="#000000" fill-opacity="1"><g transform="translate(133.683751, 241.345848)"><g><path d="M 66.546875 95.28125 L 46.25 95.28125 L 2.78125 25.328125 L 22.09375 12.484375 L 56.390625 70.859375 L 89.625 12.484375 L 110 25.046875 Z M 66.546875 95.28125 "/></g></g></g><g fill="#000000" fill-opacity="1"><g transform="translate(134.89311, 237.455853)"><g><path d="M 3.953125 0 L 36.640625 -50.109375 L 7 -95.375 L 38.796875 -95.375 L 54.0625 -64.828125 L 68.78125 -95.375 L 98.953125 -95.375 L 70.9375 -51.1875 L 103.8125 0 L 71.65625 0 L 52.796875 -35.65625 L 34.65625 0 Z M 3.953125 0 "/></g></g></g></svg>